{"title":"Mrs Brown (1997) Judi Dench as Queen Victoria (DVDrip En+En)","uid":5502297,"size":738886095,"categoryP":"video","categoryS":"movies","magnet":"?xt=urn:btih:b54e2970a3fa096e73992c772f72b7e580982047&amp;dn=Mrs+Brown+%281997%29+Judi+Dench+as+Queen+Victoria+%28DVDrip+En%2BEn%29&amp;tr=udp%3A%2F%2Ftracker.openbittorrent.com%3A80&amp;tr=udp%3A%2F%2Fopen.demonii.com%3A1337&amp;tr=udp%3A%2F%2Ftracker.coppersurfer.tk%3A6969&amp;tr=udp%3A%2F%2Fexodus.desync.com%3A6969","seeders":11,"leechers":4,"uploader":"Kuthumi","files":-1,"time":1271610636,"description":"a.k.a.\nMrs. Brown (1997)\nHer Majesty, Mrs. Brown (1997)\n\n &lt;a href=&quot;\nhttp://www.imdb.com/title/tt0119280/&quot; rel=&quot;nofollow&quot; target=&quot;_NEW&quot;&gt;\nhttp://www.imdb.com/title/tt0119280/&lt;/a&gt;\n\n\nOptional subtitles in separate idx/sub files (Work in Windows Media Player etc., \nsee enclosed Note): English (No more subs on the DVD).\n\n\nQueen Victoria, the world's most powerful woman. John Brown, a simple Scottish \nHighlander. Their extraordinary friendship transformed an empire.\n\nI could not find a decent rip of this great film anywhere, so I made one for \nyou.\n\nThis is the perfect part for Judi Dench, known as 'M' in the latest James Bond \nmovies.\n\nWidescreen DVDrip XviD 2-pass 704x368, great stereo sound AC3.\nRuns well in both my standalone DivX players.\nSample enclosed.\n\nMediaInfo analysis:\n\nFormat/Info                      : Audio Video Interleave\nFile size                        : 695 MiB\nDuration                         : 1h 40mn\nOveral bit rate                  : 966 Kbps\n\nVideo\nFormat                           : MPEG-4 Visual\nFormat profile                   : Streaming Video@L1\nFormat settings, BVOP            : Yes\nFormat settings, QPel            : No\nFormat settings, GMC             : No warppoints\nFormat settings, Matrix          : Default\nMuxing mode                      : Packet Bitstream\nCodec ID                         : XVID\nCodec ID/Hint                    : XviD\nDuration                         : 1h 40mn\nBit rate                         : 828 Kbps\nWidth                            : 704 pixels\nHeight                           : 368 pixels\nDisplay aspect ratio             : 1.913\nFrame rate                       : 25.000 fps\nResolution                       : 8 bits\nColorimetry                      : 4:2:0\nScan type                        : Progressive\nBits/(Pixel*Frame)               : 0.128\nStream size                      : 596 MiB\nWriting library                  : XviD 1.2.0.dev47 (UTC 2006-11-01)\n\nAudio\nFormat                           : MPEG Audio\nFormat version                   : Version 1\nFormat profile                   : Layer 3\nCodec ID                         : 55\nCodec ID/Hint                    : MP3\nDuration                         : 1h 40mn\nBit rate mode                    : Constant\nBit rate                         : 128 Kbps\nMinimum bit rate                 : 128 Kbps\nChannel(s)                       : 2 channels\nSampling rate                    : 48.0 KHz\nResolution                       : 16 bits\nStream size                      : 92.1 MiB\nWriting library                  : LAME3.97 \nEncoding settings                : CBR\n\n\nSource: PAL retail (note that PAL/NTSC will give no problems for avi files).","torrent":{"xt":"urn:btih:b54e2970a3fa096e73992c772f72b7e580982047","amp;dn":"Mrs+Brown+%281997%29+Judi+Dench+as+Queen+Victoria+%28DVDrip+En%2BEn%29","amp;tr":["udp%3A%2F%2Ftracker.openbittorrent.com%3A80","udp%3A%2F%2Fopen.demonii.com%3A1337","udp%3A%2F%2Ftracker.coppersurfer.tk%3A6969","udp%3A%2F%2Fexodus.desync.com%3A6969"],"infoHash":"b54e2970a3fa096e73992c772f72b7e580982047","infoHashBuffer":{"type":"Buffer","data":[181,78,41,112,163,250,9,110,115,153,44,119,47,114,183,229,128,152,32,71]},"announce":[],"urlList":[]}}